<svg width="100" height="100" viewBox="0 0 100 100" fill="none" xmlns="http://www.w3.org/2000/svg">
<path fill-rule="evenodd" clip-rule="evenodd" d="M6.57925 0.081844C4.27374 0.583637 3.38622 1.0213 2.1451 2.26852C1.1296 3.289 0.520746 4.4279 0.224213 5.86209C0.0208917 6.84491 0.000393363 10.9004 0.000393363 50.0638C0.000393363 96.8475 -0.0408803 94.2283 0.722128 95.833C1.09969 96.627 2.06629 97.8676 2.69468 98.3647C3.58095 99.0658 4.94229 99.6829 5.94685 99.8387C7.30251 100.049 92.6969 100.049 94.0525 99.8387C95.6128 99.5966 97.4217 98.5284 98.2792 97.3427C98.5014 97.0355 98.7487 96.7104 98.8289 96.6202C99.1487 96.2603 99.5849 95.1563 99.7862 94.1966C99.9749 93.298 99.999 88.2969 99.999 49.9883C99.999 2.37115 100.065 5.88993 99.1383 4.00603C98.6113 2.93457 97.2065 1.4821 96.1645 0.931693C95.7756 0.726156 94.9283 0.430177 94.2813 0.273808C93.1074 -0.00998301 93.0282 -0.010537 49.9807 0.00552924C26.2622 0.0143934 6.7316 0.0487419 6.57925 0.081844ZM25.0693 14.2987C26.4974 14.8505 27.2886 15.3537 28.2584 16.3264C29.4839 17.5556 29.8933 18.2222 30.5167 20.003C30.9387 21.2084 30.9314 23.6616 30.502 24.9043C29.5401 27.6885 27.5713 29.6583 24.7768 30.6322C23.5794 31.0496 21.1116 31.0736 19.8755 30.6802C17.224 29.8361 15.1942 27.9535 14.179 25.3964C13.8242 24.5027 13.7973 24.2938 13.7973 22.4268C13.7973 20.5669 13.825 20.3486 14.1733 19.472C15.3088 16.6149 17.6529 14.5861 20.5199 13.9794C20.8511 13.9093 21.8076 13.8742 22.6455 13.9013C23.8598 13.9407 24.3518 14.0214 25.0693 14.2987ZM72.437 36.7579C75.2985 37.4323 77.051 38.1837 78.8133 39.4918C79.8772 40.2814 80.5759 40.9712 81.1691 41.8171C81.356 42.0837 81.5401 42.333 81.5782 42.3711C82.0271 42.82 83.0532 44.8402 83.533 46.22C83.9416 47.3945 84.4532 49.4516 84.6366 50.657C84.7256 51.2416 84.8593 52.0628 84.9338 52.4818C85.0142 52.9341 85.0949 59.7281 85.1326 69.2059L85.196 85.1683H77.7778H70.3595L70.3566 72.6685C70.3551 65.7935 70.2937 59.2413 70.2203 58.1076C70.0856 56.027 69.7759 54.5205 69.2421 53.349C69.0948 53.026 68.9745 52.6988 68.9745 52.6218C68.9745 52.5448 68.9163 52.4818 68.8453 52.4818C68.7742 52.4818 68.6788 52.3641 68.6331 52.2202C68.49 51.7691 67.1927 50.5846 66.4402 50.218C65.2261 49.6263 64.1952 49.4097 62.6067 49.4126C60.5109 49.4163 58.9597 49.8437 57.3951 50.8483C56.1065 51.6757 54.9685 53.5268 54.3196 55.851L53.9649 57.1216L53.9146 71.145L53.8643 85.1683H46.392H38.9195V61.3459V37.5236H46.0524H53.1852V40.7784C53.1852 42.922 53.234 44.0332 53.328 44.0332C53.4067 44.0332 53.5114 43.924 53.561 43.7908C53.6758 43.4819 54.632 42.167 55.1849 41.5576C55.569 41.1344 55.8677 40.8441 56.863 39.9267C57.9868 38.8907 60.9196 37.3524 62.6726 36.8791C64.2079 36.4647 64.5995 36.4349 68.005 36.4741C70.6594 36.5046 71.6245 36.5665 72.437 36.7579ZM29.7098 37.8352C29.7511 38.0067 29.7678 48.7111 29.7471 61.6229L29.7091 85.0991L22.2646 85.1349L14.8201 85.1707V61.3472V37.5236H22.2274H29.6346L29.7098 37.8352Z" fill="black"/>
</svg>
