<svg width="80" height="80" viewBox="0 0 80 80" fill="none" xmlns="http://www.w3.org/2000/svg">
<path fill-rule="evenodd" clip-rule="evenodd" d="M40 80C62.0914 80 80 62.0914 80 40C80 17.9086 62.0914 0 40 0C17.9086 0 0 17.9086 0 40C0 62.0914 17.9086 80 40 80ZM17 33.7143C16.4477 33.7143 16 34.162 16 34.7143V37.2857C16 37.838 16.4477 38.2857 17 38.2857L30.8572 38.2857L24.8588 63.915C24.712 64.5424 25.1882 65.1428 25.8325 65.1428H28.3499C28.8144 65.1428 29.2177 64.823 29.3236 64.3707L35.4286 38.2857L63 38.2857C63.5523 38.2857 64 37.838 64 37.2857V34.7143C64 34.162 63.5523 33.7143 63 33.7143H17ZM49.1428 60.5714V43.2857C49.1428 42.7334 48.6951 42.2857 48.1428 42.2857H45.5714C45.0191 42.2857 44.5714 42.7334 44.5714 43.2857V61.5714V64.1428V64.1429C44.5715 64.6952 45.0192 65.1428 45.5714 65.1428L48.1428 65.1428L48.1468 65.1428H59.5714C60.1237 65.1428 60.5714 64.6951 60.5714 64.1428V61.5714C60.5714 61.0191 60.1237 60.5714 59.5714 60.5714H49.1428ZM53.1428 25.1428C55.0364 25.1428 56.5714 23.6078 56.5714 21.7143C56.5714 19.8207 55.0364 18.2857 53.1428 18.2857C51.2493 18.2857 49.7143 19.8207 49.7143 21.7143C49.7143 23.6078 51.2493 25.1428 53.1428 25.1428ZM37.7143 14.1429C37.7143 13.5906 38.162 13.1429 38.7143 13.1429H41.2857C41.838 13.1429 42.2857 13.5906 42.2857 14.1429V27C42.2857 27.5523 41.838 28 41.2857 28H38.7143C38.162 28 37.7143 27.5523 37.7143 27V14.1429ZM26.8572 25.1428C28.7507 25.1428 30.2857 23.6078 30.2857 21.7143C30.2857 19.8207 28.7507 18.2857 26.8572 18.2857C24.9636 18.2857 23.4286 19.8207 23.4286 21.7143C23.4286 23.6078 24.9636 25.1428 26.8572 25.1428Z" fill="#ED4C4C"/>
</svg>
